<svg xmlns="http://www.w3.org/2000/svg" viewBox="0 0 1200 250" width="1200" height="250" role="img" aria-label="Stack">
<rect width="1200" height="250" rx="10" fill="#0F1620" stroke="#21262D" stroke-width="1.5"/>
<text x="172" y="59.5" text-anchor="end" font-family="SFMono-Regular,Consolas,monospace" font-size="11" fill="#6E7681" letter-spacing="1.5">LANGUAGES</text>
<rect x="200" y="40" width="106" height="30" rx="6" fill="#161B22" stroke="#30363D" stroke-width="1"/>
<text x="253" y="60" text-anchor="middle" font-family="SFMono-Regular,Consolas,monospace" font-size="12.5" fill="#C9D1D9">TypeScript</text>
<rect x="316" y="40" width="75" height="30" rx="6" fill="#161B22" stroke="#30363D" stroke-width="1"/>
<text x="354" y="60" text-anchor="middle" font-family="SFMono-Regular,Consolas,monospace" font-size="12.5" fill="#C9D1D9">Python</text>
<rect x="401" y="40" width="90" height="30" rx="6" fill="#161B22" stroke="#30363D" stroke-width="1"/>
<text x="446" y="60" text-anchor="middle" font-family="SFMono-Regular,Consolas,monospace" font-size="12.5" fill="#C9D1D9">Solidity</text>
<rect x="501" y="40" width="53" height="30" rx="6" fill="#161B22" stroke="#30363D" stroke-width="1"/>
<text x="528" y="60" text-anchor="middle" font-family="SFMono-Regular,Consolas,monospace" font-size="12.5" fill="#C9D1D9">PHP</text>
<path d="M200 88 H1160" stroke="#21262D" stroke-width="1" opacity="0.6"/>
<text x="172" y="107.5" text-anchor="end" font-family="SFMono-Regular,Consolas,monospace" font-size="11" fill="#6E7681" letter-spacing="1.5">BACKEND</text>
<rect x="200" y="88" width="83" height="30" rx="6" fill="#161B22" stroke="#30363D" stroke-width="1"/>
<text x="242" y="108" text-anchor="middle" font-family="SFMono-Regular,Consolas,monospace" font-size="12.5" fill="#C9D1D9">Node.js</text>
<rect x="293" y="88" width="83" height="30" rx="6" fill="#161B22" stroke="#30363D" stroke-width="1"/>
<text x="334" y="108" text-anchor="middle" font-family="SFMono-Regular,Consolas,monospace" font-size="12.5" fill="#C9D1D9">FastAPI</text>
<rect x="386" y="88" width="83" height="30" rx="6" fill="#161B22" stroke="#30363D" stroke-width="1"/>
<text x="428" y="108" text-anchor="middle" font-family="SFMono-Regular,Consolas,monospace" font-size="12.5" fill="#C9D1D9">Laravel</text>
<rect x="479" y="88" width="90" height="30" rx="6" fill="#161B22" stroke="#30363D" stroke-width="1"/>
<text x="524" y="108" text-anchor="middle" font-family="SFMono-Regular,Consolas,monospace" font-size="12.5" fill="#C9D1D9">Postgres</text>
<rect x="579" y="88" width="75" height="30" rx="6" fill="#161B22" stroke="#30363D" stroke-width="1"/>
<text x="616" y="108" text-anchor="middle" font-family="SFMono-Regular,Consolas,monospace" font-size="12.5" fill="#C9D1D9">Prisma</text>
<rect x="664" y="88" width="75" height="30" rx="6" fill="#161B22" stroke="#30363D" stroke-width="1"/>
<text x="702" y="108" text-anchor="middle" font-family="SFMono-Regular,Consolas,monospace" font-size="12.5" fill="#C9D1D9">Docker</text>
<path d="M200 136 H1160" stroke="#21262D" stroke-width="1" opacity="0.6"/>
<text x="172" y="155.5" text-anchor="end" font-family="SFMono-Regular,Consolas,monospace" font-size="11" fill="#6E7681" letter-spacing="1.5">FRONTEND</text>
<rect x="200" y="136" width="83" height="30" rx="6" fill="#161B22" stroke="#30363D" stroke-width="1"/>
<text x="242" y="156" text-anchor="middle" font-family="SFMono-Regular,Consolas,monospace" font-size="12.5" fill="#C9D1D9">Next.js</text>
<rect x="293" y="136" width="75" height="30" rx="6" fill="#161B22" stroke="#30363D" stroke-width="1"/>
<text x="330" y="156" text-anchor="middle" font-family="SFMono-Regular,Consolas,monospace" font-size="12.5" fill="#C9D1D9">Vercel</text>
<path d="M200 184 H1160" stroke="#21262D" stroke-width="1" opacity="0.6"/>
<text x="172" y="203.5" text-anchor="end" font-family="SFMono-Regular,Consolas,monospace" font-size="11" fill="#0e75b6" letter-spacing="1.5">ONCHAIN</text>
<rect x="200" y="184" width="75" height="30" rx="6" fill="#0e75b612" stroke="#0e75b655" stroke-width="1"/>
<text x="238" y="204" text-anchor="middle" font-family="SFMono-Regular,Consolas,monospace" font-size="12.5" fill="#9FD0EE">Pharos</text>
<rect x="285" y="184" width="75" height="30" rx="6" fill="#0e75b612" stroke="#0e75b655" stroke-width="1"/>
<text x="322" y="204" text-anchor="middle" font-family="SFMono-Regular,Consolas,monospace" font-size="12.5" fill="#9FD0EE">Solana</text>
<rect x="370" y="184" width="60" height="30" rx="6" fill="#0e75b612" stroke="#0e75b655" stroke-width="1"/>
<text x="400" y="204" text-anchor="middle" font-family="SFMono-Regular,Consolas,monospace" font-size="12.5" fill="#9FD0EE">Celo</text>
<rect x="440" y="184" width="113" height="30" rx="6" fill="#0e75b612" stroke="#0e75b655" stroke-width="1"/>
<text x="496" y="204" text-anchor="middle" font-family="SFMono-Regular,Consolas,monospace" font-size="12.5" fill="#9FD0EE">OKX X Layer</text>
<rect x="563" y="184" width="75" height="30" rx="6" fill="#0e75b612" stroke="#0e75b655" stroke-width="1"/>
<text x="600" y="204" text-anchor="middle" font-family="SFMono-Regular,Consolas,monospace" font-size="12.5" fill="#9FD0EE">Somnia</text>
<rect x="648" y="184" width="60" height="30" rx="6" fill="#0e75b612" stroke="#0e75b655" stroke-width="1"/>
<text x="678" y="204" text-anchor="middle" font-family="SFMono-Regular,Consolas,monospace" font-size="12.5" fill="#9FD0EE">Lisk</text>
<rect x="718" y="184" width="98" height="30" rx="6" fill="#0e75b612" stroke="#0e75b655" stroke-width="1"/>
<text x="767" y="204" text-anchor="middle" font-family="SFMono-Regular,Consolas,monospace" font-size="12.5" fill="#9FD0EE">PortalDot</text>
</svg>